<?xml version="1.0" ?><svg xmlns="http://www.w3.org/2000/svg" width="24" height="24" viewBox="0 0 24 24" fill="none"><path d="M17 0.585693L19.5 3.08569L22 0.585693L23.4142 1.99991L20.9142 4.49991L23.4142 6.99991L22 8.41412L19.5 5.91412L17 8.41412L15.5858 6.99991L18.0858 4.49991L15.5858 1.99991L17 0.585693Z" fill="black"/><path fill-rule="evenodd" clip-rule="evenodd" d="M2 1.99991H13.5V3.99991H4V17.5857L10 11.5857L13.5 15.0857L16 12.5857L20 16.5857V10.4999H22V21.9999H2V1.99991ZM20 19.4141L16 15.4141L14.9142 16.4999L18.4142 19.9999H20V19.4141ZM15.5858 19.9999L10 14.4141L4.41421 19.9999H15.5858Z" fill="black"/></svg>